<svg width="28" height="28" viewBox="0 0 28 28" fill="none" xmlns="http://www.w3.org/2000/svg">
<g filter="url(#filter0_ddd_4088_2527)">
<path d="M11.9844 18.0156L20.9844 9.01562L19.5781 7.5625L11.9844 15.1562L8.42188 11.5938L7.01562 13L11.9844 18.0156ZM20.9844 4C21.5469 4 22.0156 4.20312 22.3906 4.60938C22.7969 4.98438 23 5.45312 23 6.01562V19.9844C23 20.5469 22.7969 21.0312 22.3906 21.4375C22.0156 21.8125 21.5469 22 20.9844 22H7.01562C6.45312 22 5.96875 21.8125 5.5625 21.4375C5.1875 21.0312 5 20.5469 5 19.9844V6.01562C5 5.45312 5.1875 4.98438 5.5625 4.60938C5.96875 4.20312 6.45312 4 7.01562 4H20.9844Z" fill="#088824"/>
</g>
<defs>
<filter id="filter0_ddd_4088_2527" x="0" y="0" width="28" height="28" filterUnits="userSpaceOnUse" color-interpolation-filters="sRGB">
<feFlood flood-opacity="0" result="BackgroundImageFix"/>
<feColorMatrix in="SourceAlpha" type="matrix" values="0 0 0 0 0 0 0 0 0 0 0 0 0 0 0 0 0 0 127 0" result="hardAlpha"/>
<feOffset dy="1"/>
<feGaussianBlur stdDeviation="2.5"/>
<feComposite in2="hardAlpha" operator="out"/>
<feColorMatrix type="matrix" values="0 0 0 0 0 0 0 0 0 0 0 0 0 0 0 0 0 0 0.12 0"/>
<feBlend mode="normal" in2="BackgroundImageFix" result="effect1_dropShadow_4088_2527"/>
<feColorMatrix in="SourceAlpha" type="matrix" values="0 0 0 0 0 0 0 0 0 0 0 0 0 0 0 0 0 0 127 0" result="hardAlpha"/>
<feOffset dy="2"/>
<feGaussianBlur stdDeviation="1"/>
<feComposite in2="hardAlpha" operator="out"/>
<feColorMatrix type="matrix" values="0 0 0 0 0 0 0 0 0 0 0 0 0 0 0 0 0 0 0.14 0"/>
<feBlend mode="normal" in2="effect1_dropShadow_4088_2527" result="effect2_dropShadow_4088_2527"/>
<feColorMatrix in="SourceAlpha" type="matrix" values="0 0 0 0 0 0 0 0 0 0 0 0 0 0 0 0 0 0 127 0" result="hardAlpha"/>
<feOffset dy="1"/>
<feGaussianBlur stdDeviation="0.5"/>
<feComposite in2="hardAlpha" operator="out"/>
<feColorMatrix type="matrix" values="0 0 0 0 0 0 0 0 0 0 0 0 0 0 0 0 0 0 0.2 0"/>
<feBlend mode="normal" in2="effect2_dropShadow_4088_2527" result="effect3_dropShadow_4088_2527"/>
<feBlend mode="normal" in="SourceGraphic" in2="effect3_dropShadow_4088_2527" result="shape"/>
</filter>
</defs>
</svg>
