<svg width="28" height="28" viewBox="0 0 28 28" fill="none" xmlns="http://www.w3.org/2000/svg">
<g filter="url(#filter0_ddd_4088_2526)">
<path d="M20.9844 4C21.5156 4 21.9844 4.20312 22.3906 4.60938C22.7969 5.01563 23 5.48438 23 6.01562V19.9844C23 20.5156 22.7969 20.9844 22.3906 21.3906C21.9844 21.7969 21.5156 22 20.9844 22H7.01562C6.48438 22 6.01562 21.7969 5.60938 21.3906C5.20312 20.9844 5 20.5156 5 19.9844V6.01562C5 5.48438 5.20312 5.01563 5.60938 4.60938C6.01562 4.20312 6.48438 4 7.01562 4H20.9844ZM20.9844 6.01562H7.01562V19.9844H20.9844V6.01562Z" fill="black" fill-opacity="0.6" shape-rendering="crispEdges"/>
</g>
<defs>
<filter id="filter0_ddd_4088_2526" x="0" y="0" width="28" height="28" filterUnits="userSpaceOnUse" color-interpolation-filters="sRGB">
<feFlood flood-opacity="0" result="BackgroundImageFix"/>
<feColorMatrix in="SourceAlpha" type="matrix" values="0 0 0 0 0 0 0 0 0 0 0 0 0 0 0 0 0 0 127 0" result="hardAlpha"/>
<feOffset dy="1"/>
<feGaussianBlur stdDeviation="2.5"/>
<feComposite in2="hardAlpha" operator="out"/>
<feColorMatrix type="matrix" values="0 0 0 0 0 0 0 0 0 0 0 0 0 0 0 0 0 0 0.12 0"/>
<feBlend mode="normal" in2="BackgroundImageFix" result="effect1_dropShadow_4088_2526"/>
<feColorMatrix in="SourceAlpha" type="matrix" values="0 0 0 0 0 0 0 0 0 0 0 0 0 0 0 0 0 0 127 0" result="hardAlpha"/>
<feOffset dy="2"/>
<feGaussianBlur stdDeviation="1"/>
<feComposite in2="hardAlpha" operator="out"/>
<feColorMatrix type="matrix" values="0 0 0 0 0 0 0 0 0 0 0 0 0 0 0 0 0 0 0.14 0"/>
<feBlend mode="normal" in2="effect1_dropShadow_4088_2526" result="effect2_dropShadow_4088_2526"/>
<feColorMatrix in="SourceAlpha" type="matrix" values="0 0 0 0 0 0 0 0 0 0 0 0 0 0 0 0 0 0 127 0" result="hardAlpha"/>
<feOffset dy="1"/>
<feGaussianBlur stdDeviation="0.5"/>
<feComposite in2="hardAlpha" operator="out"/>
<feColorMatrix type="matrix" values="0 0 0 0 0 0 0 0 0 0 0 0 0 0 0 0 0 0 0.2 0"/>
<feBlend mode="normal" in2="effect2_dropShadow_4088_2526" result="effect3_dropShadow_4088_2526"/>
<feBlend mode="normal" in="SourceGraphic" in2="effect3_dropShadow_4088_2526" result="shape"/>
</filter>
</defs>
</svg>
